<?xml version="1.0" encoding="UTF-8"?>
<svg width="1181" height="1772" viewBox="0 0 1181 1772" xmlns="http://www.w3.org/2000/svg">
  <defs>
    <linearGradient id="bgGradient" x1="0" y1="0" x2="1" y2="1">
      <stop offset="0%" stop-color="#ffffff" />
      <stop offset="100%" stop-color="#f7f7ff" />
    </linearGradient>
    <linearGradient id="panelGradient" x1="0" y1="0" x2="0" y2="1">
      <stop offset="0%" stop-color="#ffe6d9" />
      <stop offset="100%" stop-color="#fff7f0" />
    </linearGradient>
  </defs>

  <rect x="0" y="0" width="1181" height="1772" fill="#fcfaf8" />
  <rect x="20" y="20" width="1141" height="1732" rx="48" ry="48" fill="url(#bgGradient)" stroke="#f4c19d" stroke-width="40" />

  <rect x="60" y="60" width="360" height="1652" rx="32" ry="32" fill="url(#panelGradient)" />
  <text x="240" y="180" font-family="Inter, Arial, sans-serif" font-size="48" font-weight="700" text-anchor="middle" fill="#c35a34">Your Message Here</text>
  <g fill="#c35a34" opacity="0.75">
    <rect x="90" y="260" width="290" height="18" rx="9" />
    <rect x="90" y="310" width="250" height="18" rx="9" />
    <rect x="90" y="360" width="220" height="18" rx="9" />
    <rect x="90" y="440" width="320" height="14" rx="7" />
    <rect x="90" y="470" width="280" height="14" rx="7" />
    <rect x="90" y="500" width="300" height="14" rx="7" />
  </g>

  <rect x="460" y="110" width="676" height="380" rx="32" ry="32" fill="#ffffff" stroke="#f4c19d" stroke-width="20" />
  <rect x="460" y="110" width="676" height="380" rx="32" ry="32" fill="none" stroke="#c35a34" stroke-width="10" stroke-dasharray="18 18" />
  <rect x="460" y="520" width="676" height="380" rx="32" ry="32" fill="#ffffff" stroke="#f4c19d" stroke-width="20" />
  <rect x="460" y="520" width="676" height="380" rx="32" ry="32" fill="none" stroke="#c35a34" stroke-width="10" stroke-dasharray="18 18" />

  <text x="240" y="1500" font-family="Inter, Arial, sans-serif" font-size="28" text-anchor="middle" fill="#8f5a47">Two-photo design with text column</text>
</svg>
